<mxfile host="app.diagrams.net" modified="2022-03-16T13:45:14.556Z" agent="5.0 (Windows NT 10.0; Win64; x64) AppleWebKit/537.36 (KHTML, like Gecko) Chrome/99.0.4844.74 Safari/537.36" etag="e5QHt4HB84DwykfCi2fT" version="17.1.2" type="github">
  <diagram id="cu5KPe9-cTupdSrUe8kf" name="Page-1">
    <mxGraphModel dx="358" dy="473" grid="1" gridSize="10" guides="1" tooltips="1" connect="1" arrows="1" fold="1" page="1" pageScale="1" pageWidth="827" pageHeight="1169" background="#ffffff" math="0" shadow="0">
      <root>
        <mxCell id="0" />
        <mxCell id="1" parent="0" />
        <mxCell id="BpHriIwfni7H7huW0Ksz-1" value="物理层&lt;br&gt;300" style="rounded=0;whiteSpace=wrap;html=1;" parent="1" vertex="1">
          <mxGeometry x="320" y="440" width="200" height="80" as="geometry" />
        </mxCell>
        <mxCell id="BpHriIwfni7H7huW0Ksz-2" value="音频输入设备101" style="rounded=0;whiteSpace=wrap;html=1;" parent="1" vertex="1">
          <mxGeometry x="450" y="480" width="60" height="30" as="geometry" />
        </mxCell>
        <mxCell id="BpHriIwfni7H7huW0Ksz-3" value="音频输出设备102" style="rounded=0;whiteSpace=wrap;html=1;" parent="1" vertex="1">
          <mxGeometry x="330" y="480" width="60" height="30" as="geometry" />
        </mxCell>
        <mxCell id="BpHriIwfni7H7huW0Ksz-5" value="数据链路层&lt;br&gt;301" style="rounded=0;whiteSpace=wrap;html=1;" parent="1" vertex="1">
          <mxGeometry x="320" y="320" width="200" height="80" as="geometry" />
        </mxCell>
        <mxCell id="BpHriIwfni7H7huW0Ksz-6" value="应用层&lt;br&gt;302" style="rounded=0;whiteSpace=wrap;html=1;" parent="1" vertex="1">
          <mxGeometry x="320" y="200" width="200" height="80" as="geometry" />
        </mxCell>
        <mxCell id="BpHriIwfni7H7huW0Ksz-8" value="" style="endArrow=classic;html=1;rounded=0;" parent="1" edge="1">
          <mxGeometry width="50" height="50" relative="1" as="geometry">
            <mxPoint x="480" y="200" as="sourcePoint" />
            <mxPoint x="480" y="160" as="targetPoint" />
          </mxGeometry>
        </mxCell>
        <mxCell id="BpHriIwfni7H7huW0Ksz-11" value="" style="endArrow=classic;html=1;rounded=0;entryX=0.25;entryY=0;entryDx=0;entryDy=0;" parent="1" target="BpHriIwfni7H7huW0Ksz-6" edge="1">
          <mxGeometry width="50" height="50" relative="1" as="geometry">
            <mxPoint x="370" y="160" as="sourcePoint" />
            <mxPoint x="410" y="110" as="targetPoint" />
          </mxGeometry>
        </mxCell>
        <mxCell id="BpHriIwfni7H7huW0Ksz-12" value="" style="endArrow=classic;html=1;rounded=0;" parent="1" edge="1">
          <mxGeometry width="50" height="50" relative="1" as="geometry">
            <mxPoint x="479.5" y="320" as="sourcePoint" />
            <mxPoint x="479.5" y="280" as="targetPoint" />
          </mxGeometry>
        </mxCell>
        <mxCell id="BpHriIwfni7H7huW0Ksz-13" value="" style="endArrow=classic;html=1;rounded=0;entryX=0.25;entryY=0;entryDx=0;entryDy=0;exitX=0.25;exitY=1;exitDx=0;exitDy=0;" parent="1" source="BpHriIwfni7H7huW0Ksz-6" target="BpHriIwfni7H7huW0Ksz-5" edge="1">
          <mxGeometry width="50" height="50" relative="1" as="geometry">
            <mxPoint x="359.5" y="280" as="sourcePoint" />
            <mxPoint x="360.70000000000005" y="318.24" as="targetPoint" />
          </mxGeometry>
        </mxCell>
        <mxCell id="BpHriIwfni7H7huW0Ksz-14" value="" style="endArrow=classic;html=1;rounded=0;" parent="1" edge="1">
          <mxGeometry width="50" height="50" relative="1" as="geometry">
            <mxPoint x="479.5" y="440" as="sourcePoint" />
            <mxPoint x="479.5" y="400" as="targetPoint" />
          </mxGeometry>
        </mxCell>
        <mxCell id="BpHriIwfni7H7huW0Ksz-15" value="" style="endArrow=classic;html=1;rounded=0;entryX=0.25;entryY=0;entryDx=0;entryDy=0;exitX=0.25;exitY=1;exitDx=0;exitDy=0;" parent="1" edge="1">
          <mxGeometry width="50" height="50" relative="1" as="geometry">
            <mxPoint x="370" y="400" as="sourcePoint" />
            <mxPoint x="370" y="440" as="targetPoint" />
          </mxGeometry>
        </mxCell>
        <mxCell id="BpHriIwfni7H7huW0Ksz-16" value="" style="endArrow=classic;html=1;rounded=0;" parent="1" edge="1">
          <mxGeometry width="50" height="50" relative="1" as="geometry">
            <mxPoint x="480" y="560" as="sourcePoint" />
            <mxPoint x="479.5" y="510" as="targetPoint" />
          </mxGeometry>
        </mxCell>
        <mxCell id="BpHriIwfni7H7huW0Ksz-17" value="" style="endArrow=classic;html=1;rounded=0;exitX=0.25;exitY=1;exitDx=0;exitDy=0;" parent="1" edge="1">
          <mxGeometry width="50" height="50" relative="1" as="geometry">
            <mxPoint x="359.5" y="510" as="sourcePoint" />
            <mxPoint x="359.5" y="560" as="targetPoint" />
          </mxGeometry>
        </mxCell>
        <mxCell id="BpHriIwfni7H7huW0Ksz-18" value="数字信号&lt;br&gt;01a" style="text;html=1;strokeColor=none;fillColor=none;align=center;verticalAlign=middle;whiteSpace=wrap;rounded=0;" parent="1" vertex="1">
          <mxGeometry x="250" y="410" width="80" height="30" as="geometry" />
        </mxCell>
        <mxCell id="BpHriIwfni7H7huW0Ksz-19" value="摩尔斯电码音频模拟信号00a" style="text;html=1;strokeColor=none;fillColor=none;align=center;verticalAlign=middle;whiteSpace=wrap;rounded=0;" parent="1" vertex="1">
          <mxGeometry x="290" y="530" width="60" height="30" as="geometry" />
        </mxCell>
        <mxCell id="BpHriIwfni7H7huW0Ksz-22" value="摩尔斯电码音频模拟信号00b" style="text;html=1;strokeColor=none;fillColor=none;align=center;verticalAlign=middle;whiteSpace=wrap;rounded=0;" parent="1" vertex="1">
          <mxGeometry x="500" y="540" width="60" height="30" as="geometry" />
        </mxCell>
        <mxCell id="BpHriIwfni7H7huW0Ksz-23" value="数字信号&lt;br&gt;01b" style="text;html=1;strokeColor=none;fillColor=none;align=center;verticalAlign=middle;whiteSpace=wrap;rounded=0;" parent="1" vertex="1">
          <mxGeometry x="500" y="410" width="80" height="30" as="geometry" />
        </mxCell>
        <mxCell id="BpHriIwfni7H7huW0Ksz-24" value="数据&lt;br&gt;02a" style="text;html=1;strokeColor=none;fillColor=none;align=center;verticalAlign=middle;whiteSpace=wrap;rounded=0;" parent="1" vertex="1">
          <mxGeometry x="260" y="280" width="80" height="30" as="geometry" />
        </mxCell>
        <mxCell id="BpHriIwfni7H7huW0Ksz-26" value="数据&lt;br&gt;02b" style="text;html=1;strokeColor=none;fillColor=none;align=center;verticalAlign=middle;whiteSpace=wrap;rounded=0;" parent="1" vertex="1">
          <mxGeometry x="500" y="280" width="80" height="30" as="geometry" />
        </mxCell>
        <mxCell id="BpHriIwfni7H7huW0Ksz-27" value="数据&lt;br&gt;03a" style="text;html=1;strokeColor=none;fillColor=none;align=center;verticalAlign=middle;whiteSpace=wrap;rounded=0;" parent="1" vertex="1">
          <mxGeometry x="260" y="160" width="80" height="30" as="geometry" />
        </mxCell>
        <mxCell id="BpHriIwfni7H7huW0Ksz-28" value="数据&lt;br&gt;03b" style="text;html=1;strokeColor=none;fillColor=none;align=center;verticalAlign=middle;whiteSpace=wrap;rounded=0;" parent="1" vertex="1">
          <mxGeometry x="490" y="160" width="80" height="30" as="geometry" />
        </mxCell>
      </root>
    </mxGraphModel>
  </diagram>
</mxfile>
